<mxfile host="app.diagrams.net" agent="Mozilla/5.0 (Macintosh; Intel Mac OS X 10_15_7) AppleWebKit/537.36 (KHTML, like Gecko) Chrome/139.0.0.0 Safari/537.36" version="28.1.1">
  <diagram name="페이지-1" id="YYQJibuNN_Ju3tERSoz2">
    <mxGraphModel dx="2347" dy="762" grid="1" gridSize="10" guides="1" tooltips="1" connect="1" arrows="1" fold="1" page="1" pageScale="1" pageWidth="827" pageHeight="1169" math="0" shadow="0">
      <root>
        <mxCell id="0" />
        <mxCell id="1" parent="0" />
        <mxCell id="mpjfljcCP_R2rOhrj0Ar-3" value="" style="edgeStyle=orthogonalEdgeStyle;rounded=0;orthogonalLoop=1;jettySize=auto;html=1;" edge="1" parent="1" source="mpjfljcCP_R2rOhrj0Ar-1" target="mpjfljcCP_R2rOhrj0Ar-2">
          <mxGeometry relative="1" as="geometry" />
        </mxCell>
        <mxCell id="mpjfljcCP_R2rOhrj0Ar-1" value="관리자 :&lt;br&gt;사고 내역 입력" style="strokeWidth=2;html=1;shape=mxgraph.flowchart.start_1;whiteSpace=wrap;" vertex="1" parent="1">
          <mxGeometry x="350" y="20" width="100" height="60" as="geometry" />
        </mxCell>
        <mxCell id="mpjfljcCP_R2rOhrj0Ar-5" value="" style="edgeStyle=orthogonalEdgeStyle;rounded=0;orthogonalLoop=1;jettySize=auto;html=1;" edge="1" parent="1" source="mpjfljcCP_R2rOhrj0Ar-2" target="mpjfljcCP_R2rOhrj0Ar-4">
          <mxGeometry relative="1" as="geometry" />
        </mxCell>
        <mxCell id="mpjfljcCP_R2rOhrj0Ar-7" value="" style="edgeStyle=orthogonalEdgeStyle;rounded=0;orthogonalLoop=1;jettySize=auto;html=1;" edge="1" parent="1" source="mpjfljcCP_R2rOhrj0Ar-2" target="mpjfljcCP_R2rOhrj0Ar-6">
          <mxGeometry relative="1" as="geometry" />
        </mxCell>
        <mxCell id="mpjfljcCP_R2rOhrj0Ar-2" value="교통안전부가&lt;br&gt;&amp;nbsp;작성 했나?" style="rhombus;whiteSpace=wrap;html=1;strokeWidth=2;" vertex="1" parent="1">
          <mxGeometry x="340" y="120" width="120" height="80" as="geometry" />
        </mxCell>
        <mxCell id="mpjfljcCP_R2rOhrj0Ar-33" value="" style="edgeStyle=orthogonalEdgeStyle;rounded=0;orthogonalLoop=1;jettySize=auto;html=1;" edge="1" parent="1" source="mpjfljcCP_R2rOhrj0Ar-4" target="mpjfljcCP_R2rOhrj0Ar-32">
          <mxGeometry relative="1" as="geometry" />
        </mxCell>
        <mxCell id="mpjfljcCP_R2rOhrj0Ar-4" value="교통안전부 :&lt;br&gt;사고 내역에 대한 정보 &lt;br&gt;입력 완료" style="whiteSpace=wrap;html=1;strokeWidth=2;" vertex="1" parent="1">
          <mxGeometry x="130" y="220" width="120" height="60" as="geometry" />
        </mxCell>
        <mxCell id="mpjfljcCP_R2rOhrj0Ar-6" value="관리자&lt;br&gt;사고내역 삭제, 수정 가능" style="whiteSpace=wrap;html=1;strokeWidth=2;" vertex="1" parent="1">
          <mxGeometry x="580" y="220" width="120" height="60" as="geometry" />
        </mxCell>
        <mxCell id="mpjfljcCP_R2rOhrj0Ar-8" value="Y" style="text;html=1;align=center;verticalAlign=middle;whiteSpace=wrap;rounded=0;" vertex="1" parent="1">
          <mxGeometry x="180" y="130" width="60" height="30" as="geometry" />
        </mxCell>
        <mxCell id="mpjfljcCP_R2rOhrj0Ar-9" value="N" style="text;html=1;align=center;verticalAlign=middle;whiteSpace=wrap;rounded=0;" vertex="1" parent="1">
          <mxGeometry x="580" y="130" width="60" height="30" as="geometry" />
        </mxCell>
        <mxCell id="mpjfljcCP_R2rOhrj0Ar-10" value="관리자&amp;nbsp;&lt;br&gt;사고내역 삭제, 수정 불가능" style="text;html=1;align=center;verticalAlign=middle;whiteSpace=wrap;rounded=0;" vertex="1" parent="1">
          <mxGeometry x="260" y="220" width="130" height="60" as="geometry" />
        </mxCell>
        <mxCell id="mpjfljcCP_R2rOhrj0Ar-15" value="" style="edgeStyle=orthogonalEdgeStyle;rounded=0;orthogonalLoop=1;jettySize=auto;html=1;" edge="1" parent="1">
          <mxGeometry relative="1" as="geometry">
            <mxPoint x="330" y="480" as="sourcePoint" />
            <mxPoint x="250" y="540" as="targetPoint" />
          </mxGeometry>
        </mxCell>
        <mxCell id="mpjfljcCP_R2rOhrj0Ar-17" value="" style="edgeStyle=orthogonalEdgeStyle;rounded=0;orthogonalLoop=1;jettySize=auto;html=1;" edge="1" parent="1" target="mpjfljcCP_R2rOhrj0Ar-16">
          <mxGeometry relative="1" as="geometry">
            <mxPoint x="510" y="480" as="sourcePoint" />
          </mxGeometry>
        </mxCell>
        <mxCell id="mpjfljcCP_R2rOhrj0Ar-16" value="대인/ 대물/ 메인 사고 건에 대한 수정 가능" style="whiteSpace=wrap;html=1;strokeWidth=2;" vertex="1" parent="1">
          <mxGeometry x="540" y="540" width="120" height="60" as="geometry" />
        </mxCell>
        <mxCell id="mpjfljcCP_R2rOhrj0Ar-18" value="N" style="text;html=1;align=center;verticalAlign=middle;whiteSpace=wrap;rounded=0;" vertex="1" parent="1">
          <mxGeometry x="540" y="450" width="60" height="30" as="geometry" />
        </mxCell>
        <mxCell id="mpjfljcCP_R2rOhrj0Ar-19" value="Y" style="text;html=1;align=center;verticalAlign=middle;whiteSpace=wrap;rounded=0;" vertex="1" parent="1">
          <mxGeometry x="250" y="450" width="60" height="30" as="geometry" />
        </mxCell>
        <mxCell id="mpjfljcCP_R2rOhrj0Ar-20" value="메인사고 건에 대한 &lt;br&gt;총 지급액 변경 확인" style="text;html=1;align=center;verticalAlign=middle;whiteSpace=wrap;rounded=0;" vertex="1" parent="1">
          <mxGeometry x="300" y="540" width="140" height="60" as="geometry" />
        </mxCell>
        <mxCell id="mpjfljcCP_R2rOhrj0Ar-21" value="모든 데이터&lt;br&gt;&amp;nbsp;수정 가능" style="text;html=1;align=center;verticalAlign=middle;whiteSpace=wrap;rounded=0;" vertex="1" parent="1">
          <mxGeometry x="650" y="540" width="90" height="60" as="geometry" />
        </mxCell>
        <mxCell id="mpjfljcCP_R2rOhrj0Ar-30" value="대인/ 대물건에 대한&lt;br&gt;추가 종결 금액 입력 기능" style="whiteSpace=wrap;html=1;strokeWidth=2;" vertex="1" parent="1">
          <mxGeometry x="190" y="540" width="120" height="60" as="geometry" />
        </mxCell>
        <mxCell id="mpjfljcCP_R2rOhrj0Ar-35" value="" style="edgeStyle=orthogonalEdgeStyle;rounded=0;orthogonalLoop=1;jettySize=auto;html=1;" edge="1" parent="1" source="mpjfljcCP_R2rOhrj0Ar-32" target="mpjfljcCP_R2rOhrj0Ar-34">
          <mxGeometry relative="1" as="geometry" />
        </mxCell>
        <mxCell id="mpjfljcCP_R2rOhrj0Ar-39" value="" style="edgeStyle=orthogonalEdgeStyle;rounded=0;orthogonalLoop=1;jettySize=auto;html=1;" edge="1" parent="1" source="mpjfljcCP_R2rOhrj0Ar-32" target="mpjfljcCP_R2rOhrj0Ar-38">
          <mxGeometry relative="1" as="geometry" />
        </mxCell>
        <mxCell id="mpjfljcCP_R2rOhrj0Ar-32" value="메인 사고건 종결했나?" style="rhombus;whiteSpace=wrap;html=1;strokeWidth=2;" vertex="1" parent="1">
          <mxGeometry x="100" y="350" width="180" height="80" as="geometry" />
        </mxCell>
        <mxCell id="mpjfljcCP_R2rOhrj0Ar-34" value="관련 대인/대물건 추가 종결금 입력만 가능" style="whiteSpace=wrap;html=1;strokeWidth=2;" vertex="1" parent="1">
          <mxGeometry x="-90" y="460" width="120" height="60" as="geometry" />
        </mxCell>
        <mxCell id="mpjfljcCP_R2rOhrj0Ar-38" value="대인/ 대물건 종결했나?" style="rhombus;whiteSpace=wrap;html=1;strokeWidth=2;" vertex="1" parent="1">
          <mxGeometry x="330" y="440" width="180" height="80" as="geometry" />
        </mxCell>
        <mxCell id="mpjfljcCP_R2rOhrj0Ar-41" value="Y" style="text;html=1;align=center;verticalAlign=middle;whiteSpace=wrap;rounded=0;" vertex="1" parent="1">
          <mxGeometry x="-30" y="360" width="60" height="30" as="geometry" />
        </mxCell>
        <mxCell id="mpjfljcCP_R2rOhrj0Ar-42" value="N" style="text;html=1;align=center;verticalAlign=middle;whiteSpace=wrap;rounded=0;" vertex="1" parent="1">
          <mxGeometry x="360" y="360" width="60" height="30" as="geometry" />
        </mxCell>
        <mxCell id="mpjfljcCP_R2rOhrj0Ar-43" value="추가 종결금액 외에 데이터 수정 불가" style="text;html=1;align=center;verticalAlign=middle;whiteSpace=wrap;rounded=0;" vertex="1" parent="1">
          <mxGeometry x="30" y="462.5" width="100" height="55" as="geometry" />
        </mxCell>
      </root>
    </mxGraphModel>
  </diagram>
</mxfile>
